# xmcd CD database file
#
# Track frame offsets:
#	150
#	24047
#	43298
#	75725
#	102905
#	116556
#	143810
#	163309
#	184643
#	210226
#	238021
#	254530
#	283952
#	312115
#
# Disc length: 4387 seconds
#
# Revision: 0
# Processed by: cddbd v1.5.1PL0 Copyright (c) Steve Scherf et al.
# Submitted via: CDex 1.51
#
DISCID=c111210e
DTITLE=Angel Canales - Grandes Exitos
DYEAR=1900
DGENRE=Salsa
TTITLE0=Sandra
TTITLE1=Lejos De Ti
TTITLE2=La Vida Es Una Caja De Sorpresas
TTITLE3=Tenemos Que Echar Pa'lante
TTITLE4=Dos Gardenias
TTITLE5=La Sombra
TTITLE6=Sabor De Los Rumberos
TTITLE7=Hace Tiempo
TTITLE8=Nostalgia
TTITLE9=Saraguey Santoja
TTITLE10=El Cantante Y La Orquesta
TTITLE11=Sol De Mi Vida
TTITLE12=Bomba Carambomba
TTITLE13=Perico Macoña
EXTD=
EXTT0=
EXTT1=
EXTT2=
EXTT3=
EXTT4=
EXTT5=
EXTT6=
EXTT7=
EXTT8=
EXTT9=
EXTT10=
EXTT11=
EXTT12=
EXTT13=
PLAYORDER=
